# xmcd
#
# Track frame offsets: 
#        150
#        16185
#        34872
#        60307
#        86457
#        112390
#        136992
#        155422
#        181477
#        221115
#        240365
#        257212
#
# Disc length: 3727 seconds
#
# Revision: 0
# Processed by: cddbd v1.5.1PL0 Copyright (c) Steve Scherf et al.
# Submitted via: ExactAudioCopy v0.95a5
#
DISCID=a10e8d0c
DTITLE=Elliott And The Untouchables - Both Ends Burning
DYEAR=2000
DGENRE=Blues
TTITLE0=Both Ends Burnin'
TTITLE1=Can't Afford To Keep Her
TTITLE2=If You Love Me Like You Say
TTITLE3=Backstroke
TTITLE4=Be Back Home
TTITLE5=Who's Been Talkin'
TTITLE6=Diamonds At Her Feet
TTITLE7=Too Much Jellyroll
TTITLE8=Life Without You
TTITLE9=Act Like You Love Me
TTITLE10=Turned Me Upside Down
TTITLE11=Walkin' Downtown
EXTD=
EXTT0=
EXTT1=
EXTT2=
EXTT3=
EXTT4=
EXTT5=
EXTT6=
EXTT7=
EXTT8=
EXTT9=
EXTT10=
EXTT11=
PLAYORDER=
